# xmcd CD database file
#
# Track frame offsets:
#	150
#	14297
#	24818
#	39771
#	51178
#	65125
#	78729
#	89131
#	102518
#	114530
#	129247
#	142593
#	155516
#	170372
#	181481
#	193421
#	205206
#	220264
#
# Disc length: 3104 seconds
#
# Revision: 0
# Processed by: cddbd v1.5PL3 Copyright (c) Steve Scherf et al.
# Submitted via: CDex 1.50
#
DISCID=fb0c1e12
DTITLE=Pío Leyva - Dulce Cubanita
DYEAR=2002
DGENRE=Salsa
TTITLE0=Buen Tumbao
TTITLE1=Vamos Pa'l Guateque
TTITLE2=Llegaron Las Golondrinas
TTITLE3=Resuena Mi Bongo
TTITLE4=Dejenme En Paz
TTITLE5=Anabacoa
TTITLE6=Dulve Cubanita
TTITLE7=Me Voy Pa'la Luna
TTITLE8=Total
TTITLE9=Adiós Mariquita
TTITLE10=Todo Lo Tengo Ya
TTITLE11=Cuándo Tu Vayas A Oriente
TTITLE12=El Bombón De Elena
TTITLE13=Piensalo Bien
TTITLE14=El Pirimpimpin
TTITLE15=Canto A Caracas
TTITLE16=No Juegues Conmigo
TTITLE17=La Alegría Del Montuno
EXTD=YEAR: 2002
EXTT0=
EXTT1=
EXTT2=
EXTT3=
EXTT4=
EXTT5=
EXTT6=
EXTT7=
EXTT8=
EXTT9=
EXTT10=
EXTT11=
EXTT12=
EXTT13=
EXTT14=
EXTT15=
EXTT16=
EXTT17=
PLAYORDER=
